# Blender v2.79 (sub 0) OBJ File: ''
# www.blender.org
mtllib model.mtl
o model.001
v 0.636423 1.661373 -0.353782
v 0.636423 1.661373 0.236219
v 0.636423 0.001374 0.236218
v 0.636423 0.001374 -0.353782
v 0.546422 0.001374 0.236218
v 0.546422 1.661373 0.236219
v 0.546422 1.661373 -0.353782
v 0.546422 0.001374 -0.353782
v 0.546422 0.091374 -0.353781
v 0.546422 0.091374 0.256218
v 0.546422 0.001374 0.256218
v 0.546422 0.001374 -0.353781
v -0.543578 0.001374 0.256218
v -0.543578 0.091374 0.256218
v -0.543578 0.091374 -0.353781
v -0.543578 0.001374 -0.353781
v -0.543577 1.661373 -0.353781
v -0.543577 1.661373 0.236219
v -0.543577 0.001374 0.236218
v -0.543577 0.001374 -0.353782
v -0.633578 0.001374 0.236218
v -0.633577 1.661373 0.236219
v -0.633577 1.661373 -0.353781
v -0.633577 0.001374 -0.353782
v 0.546423 1.571374 0.236218
v 0.546423 1.571374 -0.353782
v 0.546423 1.661373 -0.353782
v 0.546423 1.661373 0.236218
v -0.543577 1.661373 -0.353781
v -0.543577 1.571373 -0.353781
v -0.543577 1.571373 0.236219
v -0.543577 1.661373 0.236219
v -0.553577 1.661373 -0.263781
v -0.553577 1.661373 -0.353782
v -0.553577 0.091374 -0.353781
v -0.553577 0.091374 -0.263781
v 0.546423 0.091374 -0.353781
v 0.546423 1.661373 -0.353781
v 0.546423 1.661373 -0.263781
v 0.546423 0.091374 -0.263781
v -0.033577 1.811373 0.266219
v -0.033577 1.811373 -0.383781
v -0.033577 1.651373 -0.383781
v 0.046423 1.651373 -0.383781
v 0.046423 1.811373 -0.383781
v 0.046423 1.811373 0.266219
v 0.646423 1.651373 0.236219
v -0.703577 1.651373 0.256218
v 0.546423 0.606373 -0.323782
v 0.546423 0.606373 0.196218
v 0.546423 0.586912 -0.323408
v -0.543577 0.606373 0.196218
v -0.543577 0.606373 -0.323782
v -0.543577 0.586912 -0.323408
v 0.536423 0.576912 0.226592
v -0.553577 0.576912 0.226592
v -0.633578 0.091373 0.326218
v -0.633578 0.091373 0.236218
v -0.633578 0.001374 0.236218
v -0.633578 0.001374 0.326218
v -0.543577 0.001374 0.236218
v -0.543577 0.091373 0.236218
v -0.543577 0.091373 0.326218
v -0.543577 0.001374 0.326218
v 0.546422 0.091374 0.326218
v 0.546422 0.091374 0.236218
v 0.546422 0.001374 0.236218
v 0.546422 0.001374 0.326218
v 0.636423 0.001374 0.236218
v 0.636423 0.091374 0.236218
v 0.636423 0.091374 0.326218
v 0.636423 0.001374 0.326218
v 0.546423 1.126373 -0.313781
v 0.546423 1.126373 0.206219
v 0.546423 1.106912 -0.313408
v -0.543577 1.126373 0.206219
v -0.543577 1.126373 -0.313781
v -0.543577 1.106912 -0.313408
v 0.536423 1.096912 0.236592
v -0.553577 1.096912 0.236592
v 0.636423 1.691373 0.216219
v -0.633578 1.691373 0.216219
v -0.633578 1.611373 0.216219
v 0.636423 1.611374 0.216219
v -0.633577 1.611373 -0.283781
v -0.633578 1.691373 -0.283781
v 0.636424 1.691373 -0.283781
v 0.636423 1.611374 -0.283781
v -0.633577 1.731374 0.238787
v -0.633577 1.731374 -0.381213
v -0.723577 1.651374 -0.371213
v -0.723577 1.651374 0.248787
v 0.026577 1.710143 -0.371213
v 0.016577 1.790143 -0.361212
v 0.016577 1.790143 0.258787
v 0.026577 1.710143 0.248788
v 0.736654 1.651835 0.246219
v 0.736653 1.651835 -0.373782
v 0.646653 1.731835 -0.383781
v 0.646653 1.731835 0.236219
v 0.006192 1.703527 0.246219
v 0.016192 1.783527 0.256219
v 0.016191 1.783527 -0.363781
v 0.006191 1.703527 -0.373781
v -0.013577 1.781373 0.296219
v -0.013577 1.781373 0.256219
v -0.013577 1.691373 0.256219
v -0.013577 1.691373 0.296219
v 0.026423 1.691373 0.256219
v 0.026423 1.781373 0.256219
v 0.026423 1.781373 0.296219
v 0.026423 1.691373 0.296219
vn 1.0000 0.0000 0.0000
vn -1.0000 -0.0000 0.0000
vn 0.0000 -1.0000 -0.0000
vn 0.0000 1.0000 0.0000
vn 0.0000 0.0000 -1.0000
vn 0.0000 -0.0000 1.0000
vn 0.0000 -0.0624 0.9981
vn 0.2398 0.9427 -0.2320
vn 0.0147 -0.1308 0.9913
vn -0.2226 0.9467 -0.2330
vn 0.0000 -0.9998 -0.0182
vn 0.0000 -0.0192 -0.9998
vn 0.0000 0.7178 0.6962
vn 0.9505 -0.3106 0.0116
vn -0.9505 0.3106 -0.0116
vn -0.6644 0.7474 0.0000
vn 0.9923 0.1240 0.0000
vn 0.0781 -0.9969 0.0000
vn -0.0900 0.9959 0.0000
vn 0.0096 -0.1228 0.9924
vn -0.0096 0.1229 -0.9924
vn -0.0461 0.1747 0.9835
vn 0.0461 -0.1748 -0.9835
vn -0.6644 0.7474 -0.0001
vn -0.9923 0.1240 0.0000
vn -0.0706 -0.9975 -0.0000
vn 0.0817 0.9967 0.0000
vn -0.0087 -0.1230 0.9924
vn 0.0087 0.1230 -0.9924
vn 0.0455 0.1741 0.9837
vn -0.0455 -0.1741 -0.9837
usemtl mat20.001
s 1
f 1//1 2//1 3//1 4//1
f 5//2 6//2 7//2 8//2
f 3//3 5//3 8//3 4//3
f 7//4 6//4 2//4 1//4
f 8//5 7//5 1//5 4//5
f 2//6 6//6 5//6 3//6
f 9//1 10//1 11//1 12//1
f 13//2 14//2 15//2 16//2
f 11//3 13//3 16//3 12//3
f 15//4 14//4 10//4 9//4
f 16//5 15//5 9//5 12//5
f 10//6 14//6 13//6 11//6
f 17//1 18//1 19//1 20//1
f 21//2 22//2 23//2 24//2
f 19//3 21//3 24//3 20//3
f 23//4 22//4 18//4 17//4
f 24//5 23//5 17//5 20//5
f 18//6 22//6 21//6 19//6
f 25//1 26//1 27//1 28//1
f 29//2 30//2 31//2 32//2
f 27//4 29//4 32//4 28//4
f 31//3 30//3 26//3 25//3
f 32//6 31//6 25//6 28//6
f 26//5 30//5 29//5 27//5
f 33//2 34//2 35//2 36//2
f 37//1 38//1 39//1 40//1
f 35//3 37//3 40//3 36//3
f 39//4 38//4 34//4 33//4
f 40//6 39//6 33//6 36//6
f 34//5 38//5 37//5 35//5
f 41//2 42//2 43//2
f 44//1 45//1 46//1
f 43//3 44//3 47//3 48//3
f 46//4 45//4 42//4 41//4
f 46//7 41//7 48//7
f 42//5 45//5 44//5 43//5
f 46//8 47//8 44//8
f 48//9 47//9 46//9
f 43//10 48//10 41//10
f 49//1 50//1 51//1
f 52//2 53//2 54//2
f 55//11 56//11 54//11 51//11
f 53//4 52//4 50//4 49//4
f 54//12 53//12 49//12 51//12
f 50//13 52//13 56//13 55//13
f 50//14 55//14 51//14
f 54//15 56//15 52//15
f 57//2 58//2 59//2 60//2
f 61//1 62//1 63//1 64//1
f 59//3 61//3 64//3 60//3
f 63//4 62//4 58//4 57//4
f 64//6 63//6 57//6 60//6
f 58//5 62//5 61//5 59//5
f 65//2 66//2 67//2 68//2
f 69//1 70//1 71//1 72//1
f 67//3 69//3 72//3 68//3
f 71//4 70//4 66//4 65//4
f 72//6 71//6 65//6 68//6
f 66//5 70//5 69//5 67//5
f 73//1 74//1 75//1
f 76//2 77//2 78//2
f 79//11 80//11 78//11 75//11
f 77//4 76//4 74//4 73//4
f 78//12 77//12 73//12 75//12
f 74//13 76//13 80//13 79//13
f 74//14 79//14 75//14
f 78//15 80//15 76//15
f 81//6 82//6 83//6 84//6
f 85//5 86//5 87//5 88//5
f 83//3 85//3 88//3 84//3
f 87//4 86//4 82//4 81//4
f 88//1 87//1 81//1 84//1
f 82//2 86//2 85//2 83//2
f 89//16 90//16 91//16 92//16
f 93//17 94//17 95//17 96//17
f 91//18 93//18 96//18 92//18
f 95//19 94//19 90//19 89//19
f 96//20 95//20 92//20
f 94//21 93//21 91//21
f 95//22 89//22 92//22
f 91//23 90//23 94//23
f 97//16 98//16 99//24 100//16
f 101//25 102//25 103//25 104//25
f 97//26 101//26 104//26 98//26
f 100//27 99//27 103//27 102//27
f 97//28 102//28 101//28
f 98//29 104//29 103//29
f 97//30 100//30 102//30
f 103//31 99//31 98//31
usemtl mat22.001
f 105//2 106//2 107//2 108//2
f 109//1 110//1 111//1 112//1
f 107//3 109//3 112//3 108//3
f 111//4 110//4 106//4 105//4
f 112//6 111//6 105//6 108//6
f 106//5 110//5 109//5 107//5
