# Blender v2.79 (sub 0) OBJ File: ''
# www.blender.org
mtllib model.mtl
o model
v 0.000000 0.987576 -0.063010
v 0.031505 0.987576 -0.054568
v 0.031505 0.297576 -0.054568
v 0.000000 0.297576 -0.063010
v 0.054568 0.987576 -0.031505
v 0.054569 0.297576 -0.031505
v 0.063010 0.987576 0.000000
v 0.063010 0.297576 -0.000000
v 0.054568 0.987576 0.031505
v 0.054569 0.297576 0.031505
v 0.031505 0.987576 0.054569
v 0.031505 0.297576 0.054568
v 0.000000 0.987576 0.063010
v 0.000000 0.297576 0.063010
v -0.031505 0.987576 0.054568
v -0.031505 0.297576 0.054568
v -0.054568 0.987576 0.031505
v -0.054568 0.297576 0.031505
v -0.063010 0.987576 0.000000
v -0.063010 0.297576 -0.000000
v -0.054568 0.987576 -0.031505
v -0.054568 0.297576 -0.031505
v -0.031505 0.987576 -0.054568
v -0.031505 0.297576 -0.054568
v -0.030000 0.002932 -0.380000
v -0.030000 0.002933 -0.510000
v 0.030000 0.002933 -0.510000
v 0.029999 0.002933 -0.380000
v 0.030000 0.002933 0.510000
v -0.030000 0.002933 0.510000
v -0.030000 0.002933 0.390000
v 0.030000 0.002933 0.390000
v 0.030000 0.322933 0.000000
v 0.030000 0.212933 0.000000
v -0.030000 0.212933 0.000000
v -0.030000 0.322933 0.000000
v 0.000000 0.997933 -0.510000
v 0.255000 0.997933 -0.441673
v 0.255000 0.957933 -0.441673
v 0.000000 0.957933 -0.510000
v 0.441673 0.997933 -0.255000
v 0.441673 0.957933 -0.255000
v 0.510000 0.997933 0.000000
v 0.510000 0.957933 0.000000
v 0.441673 0.997933 0.255000
v 0.441673 0.957933 0.255000
v 0.255000 0.997933 0.441673
v 0.255000 0.957933 0.441673
v -0.000000 0.997933 0.510000
v -0.000000 0.957933 0.510000
v -0.255000 0.997933 0.441673
v -0.255000 0.957933 0.441673
v -0.441673 0.997933 0.255000
v -0.441673 0.957933 0.255000
v -0.510000 0.997933 0.000000
v -0.510000 0.957933 0.000000
v -0.441673 0.997933 -0.255000
v -0.441673 0.957933 -0.255000
v -0.255000 0.997933 -0.441673
v -0.255000 0.957933 -0.441673
v -0.380000 0.002933 0.030000
v -0.510000 0.002933 0.030000
v -0.510000 0.002933 -0.030000
v -0.380000 0.002933 -0.030000
v 0.510001 0.002933 -0.030001
v 0.510001 0.002933 0.029999
v 0.390000 0.002933 0.030000
v 0.390000 0.002933 -0.030001
v 0.000000 0.322933 -0.030000
v 0.000000 0.212933 -0.030000
v 0.000000 0.212933 0.030000
v 0.000000 0.322933 0.030000
vn 0.2588 0.0000 -0.9659
vn 0.7071 0.0000 -0.7071
vn 0.9659 0.0000 -0.2588
vn 0.9659 0.0000 0.2588
vn 0.7071 -0.0000 0.7071
vn 0.2588 -0.0000 0.9659
vn -0.2588 -0.0000 0.9659
vn -0.7071 -0.0000 0.7071
vn -0.9659 -0.0000 0.2588
vn -0.9659 -0.0000 -0.2588
vn -0.7071 0.0000 -0.7071
vn -0.2588 0.0000 -0.9659
vn 0.0000 -1.0000 -0.0000
vn 0.0000 1.0000 0.0000
vn -1.0000 -0.0000 0.0000
vn 0.0000 -0.8752 0.4837
vn 0.0000 0.8471 -0.5315
vn -0.0000 -0.8805 -0.4741
vn 0.0000 0.8471 0.5315
vn 1.0000 0.0000 -0.0000
vn 0.0000 -0.0000 1.0000
vn 0.4837 -0.8752 -0.0000
vn -0.5315 0.8471 0.0000
vn -0.4741 -0.8805 -0.0000
vn 0.5315 0.8471 -0.0000
vn 0.0000 0.0000 -1.0000
usemtl mat20.001
s 1
f 1//1 2//1 3//1 4//1
f 2//2 5//2 6//2 3//2
f 5//3 7//3 8//3 6//3
f 7//4 9//4 10//4 8//4
f 9//5 11//5 12//5 10//5
f 11//6 13//6 14//6 12//6
f 13//7 15//7 16//7 14//7
f 15//8 17//8 18//8 16//8
f 17//9 19//9 20//9 18//9
f 19//10 21//10 22//10 20//10
f 21//11 23//11 24//11 22//11
f 23//12 1//12 4//12 24//12
f 4//13 3//13 6//13 8//13 10//13 12//13 14//13 16//13 18//13 20//13 22//13 24//13
f 23//14 21//14 19//14 17//14 15//14 13//14 11//14 9//14 7//14 5//14 2//14 1//14
f 25//13 26//13 27//13 28//13
f 29//13 30//13 31//13 32//13
f 27//15 33//15 32//15 34//15 28//15
f 35//15 31//15 36//15 26//15 25//15
f 34//16 35//16 25//16 28//16
f 26//17 36//17 33//17 27//17
f 34//18 32//18 31//18 35//18
f 36//19 30//19 29//19 33//19
f 33//20 29//20 32//20
f 31//15 30//15 36//15
f 37//1 38//1 39//1 40//1
f 38//2 41//2 42//2 39//2
f 41//3 43//3 44//3 42//3
f 43//4 45//4 46//4 44//4
f 45//5 47//5 48//5 46//5
f 47//6 49//6 50//6 48//6
f 49//7 51//7 52//7 50//7
f 51//8 53//8 54//8 52//8
f 53//9 55//9 56//9 54//9
f 55//10 57//10 58//10 56//10
f 57//11 59//11 60//11 58//11
f 59//12 37//12 40//12 60//12
f 40//13 39//13 42//13 44//13 46//13 48//13 50//13 52//13 54//13 56//13 58//13 60//13
f 59//14 57//14 55//14 53//14 51//14 49//14 47//14 45//14 43//14 41//14 38//14 37//14
f 61//13 62//13 63//13 64//13
f 65//13 66//13 67//13 68//13
f 63//21 69//21 68//21 70//21 64//21
f 71//21 67//21 72//21 62//21 61//21
f 70//22 71//22 61//22 64//22
f 62//23 72//23 69//23 63//23
f 70//24 68//24 67//24 71//24
f 72//25 66//25 65//25 69//25
f 69//26 65//26 68//26
f 67//21 66//21 72//21
